<svg id="eEGMDiIq2Qn1" xmlns="http://www.w3.org/2000/svg" xmlns:xlink="http://www.w3.org/1999/xlink" viewBox="0 0 300 300" shape-rendering="geometricPrecision" text-rendering="geometricPrecision"><rect width="300" height="300" rx="32" ry="32" transform="translate(.254791 0)" fill="#061627" stroke-width="0"/><g transform="matrix(.042742 0 0 0.042742 4.121554 4.121554)" clip-rule="evenodd"><g clip-rule="evenodd"><path d="M1346,1893h4090c44,0,80,36,80,80v505h377c44,0,80,36,80,80v855v855c0,44-36,80-80,80h-377v505c0,44-36,80-80,80h-4090c-44,0-80-36-80-80v-505h-333c-44,0-80-36-80-80v-855-855c0-44,36-80,80-80h333v-505c0-44,36-80,80-80Zm4010,160h-3930v505c0,44-36,80-80,80h-333v775v775h333c44,0,80,36,80,80v505h3930v-505c0-44,36-80,80-80h377v-775-775h-377c-44,0-80-36-80-80v-505Z" transform="translate(5.960414 0)" clip-rule="evenodd" fill="#5ec7f4"/></g></g><ellipse rx="13.693545" ry="22.537293" transform="translate(100.069608 142.537293)" fill="#5ec7f4" stroke-width="0"/><ellipse rx="13.693545" ry="22.537293" transform="translate(199.781909 142.537293)" fill="#5ec7f4" stroke-width="0"/><path d="M-12.190647,0.000002C-9.766114,19.035949,7.324585,19.035949,12.154395,0" transform="matrix(4.095795 0 0 1.033202 150 180.33202)" fill="rgba(0,0,0,0)" stroke="#5ec7f4" stroke-width="3" stroke-linecap="round"/><line x1="-36.162605" y1="0" x2="36.162606" y2="0" transform="matrix(2.295356 0 0 2.295356 149.925759 142.537293)" fill="none" stroke="#5ec7f4" stroke-width="3" stroke-linecap="round"/><ellipse rx="5" ry="10" transform="translate(135 142.537293)" fill="#5ec7f4" stroke-width="0"/><ellipse rx="5" ry="10" transform="translate(165 142.537293)" fill="#5ec7f4" stroke-width="0"/><line x1="0" y1="-10" x2="0" y2="10" transform="translate(65 142.537293)" fill="none" stroke="#5ec7f4" stroke-width="6" stroke-linecap="round"/><line x1="0" y1="-10" x2="0" y2="10" transform="translate(234 142.537293)" fill="none" stroke="#5ec7f4" stroke-width="6" stroke-linecap="round"/></svg>
